# xmcd CD database file
#
# Track frame offsets:
#	150
#	16402
#	33775
#	48546
#	63871
#	80609
#	95693
#	113111
#	128797
#	148090
#	164242
#	182130
#	195864
#	212829
#	229071
#	243744
#	260625
#	286806
#	301577
#	316134
#
# Disc length: 4452 seconds
#
# Revision: 0
# Processed by: cddbd v1.5.1PL0 Copyright (c) Steve Scherf et al.
# Submitted via: Feurio! 1.68 - http://www.feurio.com
#
DISCID=1b116214
DTITLE=Various Artist - Ronald`s Deutsch Edition 2 Cd 1
DYEAR=1900
DGENRE=
TTITLE0=Brunner and Brunner - Brunner and Brunner - Du bist Leben für mich
TTITLE1=Nino de Angelo - Nino de Angelo - Doch Tränen wirst du niemals sehen
TTITLE2=Michelle - Michelle - Hast du Lust
TTITLE3=Tommy Steiner - Tommy Steiner - Tanz' noch einmal mit mir
TTITLE4=Andrea Berg - Andrea Berg - Ich sterbe nicht nochmal
TTITLE5=Sandy Wagner - Sandy Wagner - Die wilden Zeiten
TTITLE6=Simone - Simone - Viel Zu Oft
TTITLE7=Guido Hoffmann - Guido Hoffmann - Himalaya
TTITLE8=Matthias Carras - Matthias Carras - Rocky
TTITLE9=Ireen Sheer - Ireen Sheer - Ich Bin Stark
TTITLE10=Chris Marlow - Chris Marlow - Wie bist du denn drauf
TTITLE11=Leonard - Leonard - Wie Mona Lisa
TTITLE12=Bella Vista - Bella Vista - All' das ist fremd ohne Dich (Discofox 
TTITLE12=Version)
TTITLE13=Claudia Jung - Claudia Jung - Wo Kommen Die Träume Her -1991
TTITLE14=DMP Presents Michael Holm - DMP Presents Michael Holm - Tränen lügen 
TTITLE14=nicht
TTITLE15=Roland Kaiser - Roland Kaiser - Im 5.Element
TTITLE16=Cora - Cora - Amsterdam (longversion)
TTITLE17=Michael Wendler - Michael Wendler - Nicht mehr in diesem Leben
TTITLE18=Mary Roos - Mary Roos - Blaues Meer und warmer Wind
TTITLE19=Laith Al-Deen - Laith Al-Deen - Dein Lied (Radio Edit)
EXTD=
EXTT0=
EXTT1=
EXTT2=
EXTT3=
EXTT4=
EXTT5=
EXTT6=
EXTT7=
EXTT8=
EXTT9=
EXTT10=
EXTT11=
EXTT12=
EXTT13=
EXTT14=
EXTT15=
EXTT16=
EXTT17=
EXTT18=
EXTT19=
PLAYORDER=
